<?xml version="1.0" encoding="UTF-8"?>
<!-- Generator: Adobe Illustrator 28.0.0, SVG Export Plug-In . SVG Version: 6.00 Build 0)  -->
<svg xmlns="http://www.w3.org/2000/svg" xmlns:xlink="http://www.w3.org/1999/xlink" version="1.1" id="Layer_1" x="0px" y="0px" viewBox="0 0 283.5 283.5" style="enable-background:new 0 0 283.5 283.5;" xml:space="preserve">
<style type="text/css">
	.st0{fill:#898F65;}
	.st1{fill:#76777A;}
	.st2{fill:none;stroke:#1D1D1B;stroke-miterlimit:10;}
	.st3{fill:none;}
	.st4{fill:#76777A;stroke:#1D1D1B;stroke-miterlimit:10;}
	.st5{fill:#FFFFFF;}
</style>
<g>
	<g>
		<path class="st0" d="M92.8-926.9l-2.9,0.6L86.3-946l0,0c-0.5,1-1.5,3.2-3,6.6c-1.6,3.5-3.1,6.9-4.6,10.4h-2.4    c-1.4-3.2-2.9-6.7-4.6-10.5c-1.7-3.7-2.7-5.9-3-6.6l0,0c-0.1,0.3-0.5,2.5-1.4,6.7s-1.7,8.5-2.5,13l-2.7-0.5    c1.2-5.1,2.3-10.1,3.3-15c1-5,1.6-7.6,1.7-8.1l2.8-0.4c0.1,0.3,0.9,2.2,2.5,5.7c1.5,3.5,3.4,7.5,5.4,12.1h0.1    c1.6-3.6,3.3-7.4,5.1-11.5c1.8-4.1,2.7-6.2,2.8-6.3l2.7,0.2c0,0.3,0.5,2.8,1.5,7.7S91.7-932.4,92.8-926.9z"></path>
		<path class="st0" d="M115.2-933.5c0,1.2-0.3,2.2-0.9,3.2s-1.5,1.7-2.6,2.3c-1,0.5-2.1,0.9-3.4,1.2c-1.2,0.2-2.6,0.4-4.2,0.4    c-1.2,0-2.4,0-3.6-0.1c-1.2,0-1.9-0.1-2-0.1c0-2.2,0.1-4.4,0.1-6.4s0-3.9,0-5.7c0-3.4,0-6.2,0-8.2s0-3.1,0-3.1    c0.2,0,0.8,0,1.9-0.1c1.1,0,2.2-0.1,3.3-0.1c1.2,0,2.3,0.1,3.3,0.2c1,0.2,1.9,0.4,2.6,0.7c1.1,0.4,1.9,1,2.5,1.8s0.9,1.8,0.9,2.9    c0,1.2-0.4,2.3-1.1,3.2s-1.6,1.6-2.6,1.9v0.2c0.8,0.1,1.6,0.3,2.3,0.6c0.8,0.3,1.4,0.8,2,1.3c0.5,0.5,0.9,1.1,1.1,1.7    C115-935.1,115.2-934.4,115.2-933.5z M112.2-933.4c0-0.6-0.1-1.1-0.3-1.6s-0.5-0.9-0.9-1.4c-0.4-0.4-0.9-0.7-1.6-1    s-1.5-0.4-2.3-0.4c-0.7,0-1.2,0-1.6,0s-0.7,0-0.8,0l-0.3-2.1c0.9,0,1.6-0.1,2.3-0.3c0.7-0.2,1.3-0.5,1.8-0.8    c0.5-0.4,0.9-0.8,1.2-1.3s0.5-1.2,0.5-1.8c0-0.7-0.2-1.3-0.5-1.9c-0.4-0.5-0.8-0.9-1.4-1.2c-0.5-0.2-1.1-0.4-1.9-0.6    s-1.5-0.2-2.4-0.2c-0.5,0-1.1,0-1.5,0s-0.8,0-0.9,0c0,1.7-0.1,3.5-0.1,5.4s0,3.3,0,4.2c0,2,0,4,0,6.1s0,3.1,0,3.3    c0.2,0,0.5,0,0.9,0s0.8,0,1.1,0c1.3,0,2.6-0.1,3.7-0.2c1.2-0.1,2.1-0.4,2.9-0.9c0.7-0.4,1.2-0.8,1.5-1.4    C112-931.9,112.2-932.6,112.2-933.4z"></path>
		<path class="st1" d="M139.6-927.9l-2.2,1.8c-0.3-0.3-1.2-1.3-2.7-3.1s-4-4.5-7.3-8.3v-0.2c0.4-0.1,1-0.4,1.8-0.8    c0.7-0.4,1.4-0.8,1.9-1.3c0.4-0.4,0.8-0.9,1.1-1.5s0.5-1.4,0.5-2.4c0-0.9-0.2-1.7-0.7-2.3s-1.1-1.1-2-1.4    c-0.7-0.3-1.4-0.4-2.1-0.5c-0.7-0.1-1.4-0.1-2.1-0.1c-0.4,0-0.7,0-1,0c-0.2,0-0.4,0-0.5,0c0,2.2,0,4.2,0,5.9s0,2.9,0,3.6    c0,1.6,0,3.8,0,6.5c0,2.8,0,4.5,0,5.2h-2.9c0-0.7,0-2.1,0.1-4.1s0-4.5,0-7.5c0-0.6,0-1.7,0-3.3s0-4.5-0.1-8.6c0.1,0,0.7,0,1.8,0    s2,0,2.9,0c1,0,2,0.1,3,0.2c1,0.1,1.9,0.4,2.8,0.8c1.2,0.5,2.1,1.2,2.8,2.2s1,2.1,1,3.4c0,1.7-0.5,3-1.5,4.2c-1,1.1-2,1.9-2.9,2.5    v0.1c1.6,1.9,3.4,3.8,5.3,5.8C138.4-929.2,139.5-928.1,139.6-927.9z"></path>
		<path class="st1" d="M159.2-926.6c-0.1,0-0.9,0-2.3,0s-3.3,0-5.4,0c-1.5,0-2.9,0-4.1,0s-2.3,0-3.1,0c0-0.7,0-2.2,0.1-4.4    s0-4.6,0-7c0-1.3,0-3.1,0-5.3s0-4.4-0.1-6.8c0.8,0,1.9,0,3.1,0c1.2,0,2.5,0,3.9,0c2.2,0,4.1,0,5.5,0s2.2,0,2.3,0v2.5    c-0.1,0-0.9,0-2.2,0s-3,0-5.1,0c-0.9,0-1.7,0-2.6,0c-0.8,0-1.5,0-2,0c0,1.3,0,2.6,0,4c0,1.3,0,2.6,0,3.7c0.5,0,1.2,0,1.9,0    s1.4,0,1.9,0c2.1,0,3.9,0,5.5,0s2.5,0,2.6,0v2.4c-0.1,0-1.1,0-2.9,0s-3.5,0-5,0c-0.6,0-1.2,0-2,0s-1.4,0-2,0c0,2.2,0,4,0,5.3    s0,2.4,0,3.3c0.7,0,1.5,0,2.5,0s2,0,3.2,0c1.7,0,3.2,0,4.4,0s1.9,0,2,0L159.2-926.6L159.2-926.6z"></path>
		<path class="st1" d="M181.6-928.7c0,0.1,0,0.4-0.1,0.9s-0.1,1-0.1,1.6c-0.1,0-0.2,0-0.3,0s-0.2,0-0.3,0c-2.9,0-5.4-0.4-7.6-1.1    c-2.2-0.7-4.1-1.8-5.5-3.1c-1-0.9-1.8-2.1-2.4-3.4c-0.6-1.3-0.9-2.8-0.9-4.5c0-1.5,0.3-2.9,0.9-4.2c0.6-1.3,1.3-2.4,2.2-3.3    c1.3-1.4,3.2-2.4,5.4-3.2c2.3-0.8,4.7-1.2,7.3-1.2c0.1,0,0.3,0,0.4,0s0.3,0,0.4,0c0,0.2,0,0.5,0.1,1c0,0.5,0.1,1,0.1,1.5    c-0.1,0-0.2,0-0.3,0s-0.2,0-0.3,0c-1.5,0-3,0.2-4.6,0.5s-2.9,0.8-4.1,1.5c-1.5,0.8-2.6,1.9-3.4,3.2c-0.8,1.3-1.2,2.7-1.2,4.3    s0.4,3,1.1,4.3s1.8,2.4,3.4,3.3c1.3,0.7,2.7,1.3,4.3,1.6s3.1,0.5,4.7,0.5c0.1,0,0.2,0,0.3,0C181.3-928.7,181.4-928.7,181.6-928.7z    "></path>
		<path class="st1" d="M205-927.9l-2.2,1.8c-0.3-0.3-1.2-1.3-2.7-3.1s-4-4.5-7.3-8.3v-0.2c0.4-0.1,1-0.4,1.8-0.8    c0.7-0.4,1.4-0.8,1.9-1.3c0.4-0.4,0.8-0.9,1.1-1.5s0.5-1.4,0.5-2.4c0-0.9-0.2-1.7-0.7-2.3s-1.1-1.1-2-1.4    c-0.7-0.3-1.4-0.4-2.1-0.5c-0.7-0.1-1.4-0.1-2.1-0.1c-0.4,0-0.7,0-1,0c-0.2,0-0.4,0-0.5,0c0,2.2,0,4.2,0,5.9s0,2.9,0,3.6    c0,1.6,0,3.8,0,6.5c0,2.8,0,4.5,0,5.2h-2.9c0-0.7,0-2.1,0.1-4.1s0-4.5,0-7.5c0-0.6,0-1.7,0-3.3s0-4.5-0.1-8.6c0.1,0,0.7,0,1.8,0    s2,0,2.9,0c1,0,2,0.1,3,0.2c1,0.1,1.9,0.4,2.8,0.8c1.2,0.5,2.1,1.2,2.8,2.2s1,2.1,1,3.4c0,1.7-0.5,3-1.5,4.2c-1,1.1-2,1.9-2.9,2.5    v0.1c1.6,1.9,3.4,3.8,5.3,5.8C203.8-929.2,204.8-928.1,205-927.9z"></path>
		<path class="st1" d="M228.8-950.1c0,2.2,0,4.1,0,5.6s0,2.8,0,3.8c0,1.3,0,2.5,0,3.4s0,1.8,0,2.5c0,1.4-0.2,2.6-0.6,3.6    c-0.4,1-1,1.9-1.8,2.7s-1.8,1.4-3,1.8c-1.2,0.4-2.6,0.7-4.1,0.7s-3-0.2-4.1-0.7s-2.2-1-3-1.8s-1.4-1.7-1.8-2.7    c-0.4-1-0.6-2.2-0.6-3.6c0-0.7,0-1.5,0-2.5s0-2.1,0-3.4c0-1.1,0-2.4,0-3.8c0-1.4,0-3.3,0-5.6h2.9c0,0.3,0,1.3,0,3s0,3.9,0,6.7    c0,0.8,0,1.7,0,2.6c0,0.9,0,1.8,0,2.8c0,2.1,0.6,3.8,1.8,4.9c1.2,1.1,2.9,1.7,5,1.7c2.3,0,4-0.5,5.1-1.6s1.7-2.7,1.7-5    c0-0.9,0-1.9,0-2.8c0-0.9,0-1.8,0-2.6c0-2.8,0-5.1,0-6.8c0-1.8,0-2.7,0-2.9L228.8-950.1L228.8-950.1z"></path>
		<path class="st1" d="M239.8-926.5h-2.9c0-0.7,0-2,0.1-3.8s0-4.4,0-7.8c0-1.3,0-3.1,0-5.3s0-4.4-0.1-6.8h2.9c0,1.7,0,3.6-0.1,5.8    s0,4,0,5.4c0,3.6,0,6.3,0,8.3C239.7-928.7,239.7-927.2,239.8-926.5z"></path>
		<path class="st1" d="M264.2-947.6c-0.2,0-1,0-2.4,0s-3.5,0-6.3,0c0,2.4,0,4.2-0.1,5.5s0,2.9,0,5.1c0,2.1,0,4.2,0,6.3s0,3.5,0,4.2    h-2.9c0-0.7,0-2.1,0.1-4.3c0-2.2,0-4.3,0-6.4c0-2,0-3.7,0-4.9s0-3.1-0.1-5.6c-2.5,0-4.5,0-6.1,0s-2.4,0-2.6,0v-2.4    c1.2,0,2.7,0,4.4,0s3.6,0,5.5,0c2.8,0,5.2,0,7.1,0s2.9,0,3.1,0v2.5L264.2-947.6L264.2-947.6z"></path>
	</g>
</g>
<rect x="-225.1" y="-382.7" class="st0" width="80.3" height="83.9"></rect>
<rect x="-225.1" y="-382.7" class="st2" width="80.3" height="107.1"></rect>
<rect x="-219.8" y="-291.7" class="st3" width="75" height="14.3"></rect>
<text transform="matrix(1 0 0 1 -219.7942 -284.9984)" style="fill:#1D1D1B; font-family:'MyriadPro-Regular'; font-size:9.4462px;">Pantone  5773</text>
<rect x="-116.5" y="-382.7" class="st4" width="80.3" height="80.3"></rect>
<rect x="-116.5" y="-382.7" class="st2" width="80.3" height="107.1"></rect>
<rect x="-111.2" y="-297.8" class="st3" width="75" height="29.1"></rect>
<text transform="matrix(1 0 0 1 -111.1555 -291.0521)" style="fill:#1D1D1B; font-family:'MyriadPro-Regular'; font-size:9.4462px;">Pantone </text>
<text transform="matrix(1 0 0 1 -111.1555 -279.7521)" style="fill:#1D1D1B; font-family:'MyriadPro-Regular'; font-size:9.4462px;">Cool Grey   9</text>
<g>
	<path class="st0" d="M54-824.7l-5.7,1.1l-7.2-39v-0.1c-0.9,1.9-2.9,6.2-6,13.1C32-842.8,29-835.9,26-829h-4.8   c-2.8-6.4-5.8-13.3-9.1-20.7s-5.3-11.7-5.9-13H6.1c-0.1,0.6-1.1,5-2.8,13.3s-3.4,16.8-5,25.6l-5.3-1c2.3-10,4.5-19.9,6.5-29.7   s3.1-15.1,3.3-16l5.5-0.6c0.2,0.5,1.9,4.3,4.9,11.2s6.6,14.9,10.8,24h0.2c3.2-7.1,6.5-14.6,10-22.7c3.5-8,5.4-12.2,5.5-12.5   l5.3,0.4c0,0.5,1,5.6,2.9,15.3C49.7-845.8,51.8-835.5,54-824.7z"></path>
	<path class="st0" d="M98.2-837.7c0,2.3-0.6,4.4-1.8,6.3c-1.2,1.9-2.9,3.4-5.2,4.6c-2,1-4.2,1.8-6.6,2.3s-5.2,0.7-8.3,0.7   c-2.3,0-4.6,0-7.1-0.1c-2.4-0.1-3.8-0.1-4-0.2c0.1-4.4,0.1-8.6,0.1-12.6s0-7.7,0-11.3c0-6.8,0-12.2-0.1-16.2s-0.1-6-0.1-6.2   c0.3,0,1.6-0.1,3.8-0.2c2.2-0.1,4.4-0.1,6.5-0.1c2.4,0,4.6,0.2,6.6,0.5s3.7,0.7,5.1,1.3c2.1,0.8,3.8,2,5,3.6s1.8,3.5,1.8,5.8   c0,2.4-0.8,4.5-2.3,6.3s-3.2,3.1-5.2,3.8v0.3c1.6,0.1,3.1,0.5,4.6,1.1s2.8,1.5,4,2.6c1,1,1.7,2.1,2.3,3.3   C98-841,98.2-839.5,98.2-837.7z M92.3-837.6c0-1.2-0.2-2.2-0.6-3.2c-0.4-0.9-1-1.8-1.9-2.7c-0.8-0.8-1.9-1.4-3.3-1.9   s-2.9-0.7-4.5-0.7c-1.3,0-2.3,0-3.1,0c-0.8,0-1.3,0-1.6,0l-0.6-4.2c1.7,0,3.2-0.2,4.5-0.6c1.3-0.4,2.5-0.9,3.5-1.6s1.8-1.6,2.4-2.7   c0.6-1.1,0.9-2.3,0.9-3.6c0-1.4-0.3-2.6-1-3.7c-0.7-1-1.6-1.8-2.8-2.5c-1-0.5-2.3-0.9-3.7-1.1c-1.5,0-3.1-0.2-4.7-0.2   c-1.1,0-2.1,0-3,0.1c-0.9,0-1.5,0.1-1.8,0.1c-0.1,3.4-0.1,7-0.1,10.8s0,6.6,0,8.3c0,4,0,8,0.1,12s0.1,6.2,0.1,6.4   c0.5,0,1.1,0.1,1.9,0.1s1.5,0.1,2.2,0.1c2.7,0,5.1-0.1,7.4-0.4s4.2-0.9,5.8-1.7c1.3-0.7,2.3-1.7,3-2.8   C92-834.6,92.3-836,92.3-837.6z"></path>
	<path class="st1" d="M146.6-826.8l-4.4,3.6c-0.5-0.5-2.3-2.5-5.4-6c-3.1-3.5-7.9-8.9-14.3-16.3v-0.3c0.9-0.2,2.1-0.7,3.5-1.5   c1.5-0.8,2.7-1.6,3.7-2.5c0.9-0.8,1.6-1.8,2.2-2.9c0.6-1.2,1-2.7,1-4.7c0-1.8-0.5-3.3-1.4-4.6s-2.2-2.2-3.9-2.8   c-1.3-0.5-2.8-0.8-4.2-0.9c-1.5-0.1-2.9-0.2-4.1-0.2c-0.8,0-1.5,0-1.9,0s-0.8,0-1,0c0,4.4-0.1,8.3-0.1,11.7s0,5.7,0,7.1   c0,3.2,0,7.5,0.1,12.9c0,5.5,0.1,8.9,0.1,10.3h-5.7c0-1.4,0.1-4.1,0.1-8.1s0.1-9,0.1-14.9c0-1.2,0-3.3,0-6.4   c0-3.1-0.1-8.8-0.2-17.1c0.2,0,1.4,0,3.5-0.1c2.1,0,4-0.1,5.8-0.1c2,0,4,0.1,5.9,0.3s3.7,0.7,5.6,1.5c2.3,1,4.1,2.4,5.5,4.3   c1.3,1.9,2,4.1,2,6.7c0,3.3-1,6-3,8.2s-3.9,3.8-5.7,4.9v0.2c3.2,3.7,6.7,7.5,10.5,11.5S146.3-827.1,146.6-826.8z"></path>
	<path class="st1" d="M185.4-824.1c-0.2,0-1.7,0-4.6,0s-6.4,0-10.7,0c-2.9,0-5.6,0-8.1,0s-4.5,0-6.2,0c0-1.3,0.1-4.3,0.1-8.7   c0-4.5,0.1-9.1,0.1-13.9c0-2.6,0-6.1,0-10.4s-0.1-8.8-0.1-13.4c1.6,0,3.7,0,6.2,0s5,0,7.6,0c4.4,0,8,0,10.8,0s4.3,0,4.5,0v4.8   c-0.2,0-1.7,0-4.4-0.1c-2.7,0-6-0.1-10-0.1c-1.7,0-3.4,0-5.1,0c-1.7,0-3,0-4,0c0,2.6,0,5.2-0.1,7.8c0,2.6-0.1,5.1-0.1,7.4   c1,0,2.3,0,3.7,0s2.7,0,3.8,0c4.1,0,7.7,0,10.9-0.1s4.9-0.1,5.1-0.1v4.8c-0.2,0-2.1,0-5.7-0.1c-3.6,0-7-0.1-10-0.1   c-1.1,0-2.4,0-4,0s-2.8,0-3.9,0c0,4.4,0,7.9,0,10.4s0,4.7,0.1,6.5c1.4,0,3,0,5,0.1c1.9,0,4,0,6.3,0c3.5,0,6.4,0,8.7,0s3.7,0,3.9,0   v5.2L185.4-824.1L185.4-824.1z"></path>
	<path class="st1" d="M229.7-828.3c0,0.2-0.1,0.8-0.2,1.8c-0.1,1-0.2,2-0.3,3.1c-0.2,0-0.4,0-0.6,0c-0.2,0-0.4,0-0.6,0   c-5.7,0-10.7-0.7-15.1-2.1c-4.4-1.4-8-3.5-10.8-6.2c-2-1.9-3.5-4.1-4.7-6.7c-1.1-2.6-1.7-5.6-1.7-9c0-3,0.6-5.8,1.7-8.3   s2.6-4.7,4.4-6.5c2.7-2.7,6.2-4.8,10.7-6.4c4.5-1.6,9.3-2.4,14.4-2.4c0.3,0,0.5,0,0.9,0c0.3,0,0.6,0,0.7,0c0,0.4,0.1,1.1,0.1,2   c0.1,0.9,0.1,1.9,0.2,3c-0.2,0-0.4,0-0.6,0s-0.4,0-0.6,0c-2.9,0-5.9,0.3-9,1c-3.1,0.6-5.8,1.6-8,2.9c-2.9,1.7-5.2,3.8-6.8,6.4   c-1.6,2.6-2.4,5.4-2.4,8.4c0,3.1,0.7,6,2.1,8.5c1.4,2.6,3.7,4.7,6.7,6.4c2.5,1.4,5.3,2.5,8.4,3.1c3.1,0.6,6.2,1,9.2,1   c0.1,0,0.4,0,0.7,0C229-828.3,229.3-828.3,229.7-828.3z"></path>
	<path class="st1" d="M275.8-826.8l-4.4,3.6c-0.5-0.5-2.3-2.5-5.4-6s-7.9-8.9-14.3-16.3v-0.3c0.9-0.2,2.1-0.7,3.5-1.5   c1.5-0.8,2.7-1.6,3.7-2.5c0.9-0.8,1.6-1.8,2.2-2.9c0.6-1.2,1-2.7,1-4.7c0-1.8-0.5-3.3-1.4-4.6s-2.2-2.2-3.9-2.8   c-1.3-0.5-2.8-0.8-4.2-0.9c-1.5-0.1-2.9-0.2-4.1-0.2c-0.8,0-1.5,0-1.9,0s-0.8,0-1,0c0,4.4-0.1,8.3-0.1,11.7s0,5.7,0,7.1   c0,3.2,0,7.5,0.1,12.9c0,5.5,0.1,8.9,0.1,10.3H240c0-1.4,0.1-4.1,0.1-8.1s0.1-9,0.1-14.9c0-1.2,0-3.3,0-6.4c0-3.1-0.1-8.8-0.2-17.1   c0.2,0,1.4,0,3.5-0.1c2.1,0,4-0.1,5.8-0.1c2,0,4,0.1,5.9,0.3s3.7,0.7,5.6,1.5c2.3,1,4.1,2.4,5.5,4.3c1.3,1.9,2,4.1,2,6.7   c0,3.3-1,6-3,8.2s-3.9,3.8-5.7,4.9v0.2c3.2,3.7,6.7,7.5,10.4,11.5S275.5-827.1,275.8-826.8z"></path>
	<path class="st1" d="M323-870.6c0,4.4,0,8.1-0.1,11c0,2.9-0.1,5.4-0.1,7.6c0,2.6,0,4.9,0,6.8c0,1.9,0,3.5,0,4.8   c0,2.7-0.4,5.1-1.2,7.1c-0.8,2.1-2,3.8-3.6,5.4c-1.6,1.5-3.6,2.7-6,3.6c-2.4,0.9-5.1,1.3-8.2,1.3s-5.8-0.4-8.2-1.3   c-2.4-0.9-4.4-2.1-6-3.6s-2.8-3.3-3.6-5.4c-0.8-2.1-1.2-4.4-1.2-7.1c0-1.4,0-3,0-4.8c0-1.9,0-4.1,0-6.8c0-2.2,0-4.7-0.1-7.6   c0-2.9-0.1-6.6-0.1-11h5.7c0,0.6-0.1,2.6-0.1,5.9s-0.1,7.8-0.1,13.3c0,1.7,0,3.4,0,5.2s0,3.6,0,5.5c0,4.2,1.2,7.5,3.6,9.6   c2.4,2.2,5.7,3.3,9.9,3.3c4.5,0,7.9-1,10.1-3.1s3.4-5.4,3.4-9.8c0-1.9,0-3.7,0-5.5s0-3.5,0-5.2c0-5.5,0-10-0.1-13.5   c0-3.5-0.1-5.4-0.1-5.7C316.9-870.6,323-870.6,323-870.6z"></path>
	<path class="st1" d="M344.6-824h-5.7c0-1.4,0.1-3.9,0.1-7.4s0.1-8.7,0.1-15.4c0-2.6,0-6.1,0-10.4s-0.1-8.7-0.1-13.4h5.7   c0,3.3-0.1,7.2-0.1,11.6c0,4.4-0.1,8-0.1,10.8c0,7,0,12.5,0.1,16.4C344.6-828,344.6-825.4,344.6-824z"></path>
	<path class="st1" d="M393-865.7c-0.4,0-1.9,0-4.7,0c-2.7,0-6.9,0-12.4,0c0,4.8-0.1,8.4-0.1,10.8c0,2.4,0,5.8,0,10.1   c0,4.1,0,8.2,0.1,12.4c0,4.2,0.1,7,0.1,8.4h-5.7c0-1.4,0.1-4.2,0.1-8.5s0.1-8.5,0.1-12.6c0-4,0-7.2,0-9.6c0-2.4,0-6-0.1-11   c-4.9,0-8.9,0-12,0s-4.8,0.1-5.1,0.1v-4.9c2.4,0,5.3,0,8.7,0c3.4,0,7.1,0,10.9,0c5.6,0,10.3,0,14.1,0c3.8,0,5.8,0,6.1,0v4.8H393   L393-865.7z"></path>
</g>
<g>
	<g>
		<path d="M156.4-677.1l-4.5,0.9l-2.4-12.8h-0.1c-0.3,0.6-0.8,1.9-1.7,4s-1.7,4.3-2.6,6.6h-3.5c-0.9-2.3-1.8-4.5-2.7-6.7    s-1.5-3.4-1.7-3.9h-0.1c-0.1,0.5-0.4,2-0.9,4.6s-1,5.3-1.5,8.1l-4.4-0.8c1-4.4,1.8-8.4,2.6-12c0.7-3.6,1.1-5.6,1.2-6.2l4.5-0.5    c0.1,0.4,0.7,1.7,1.6,4c0.9,2.3,2,5,3.2,8h0.1c1-2.4,2-4.9,3.1-7.6s1.7-4.2,1.8-4.4l4.6,0.4c0,0.3,0.4,2.2,1,5.8    C154.7-686,155.5-681.9,156.4-677.1z"></path>
		<path d="M175.7-682.1c0,1.1-0.3,2-1,2.8s-1.6,1.5-2.8,1.9c-1,0.4-2.1,0.6-3.4,0.7c-1.3,0.1-2.7,0.2-4.2,0.2c-0.8,0-1.7,0-2.6,0    c-0.9,0-1.6,0-2-0.1c0-1.5,0-3.1,0-4.7c0-1.6,0-3.3,0-5.2c0-2,0-4,0-5.9s0-2.9,0-3.1c0.2,0,0.7,0,1.6-0.1c0.9-0.1,1.8-0.1,2.9-0.1    c1.5,0,2.8,0,3.8,0.1s1.9,0.3,2.8,0.5c1,0.3,1.9,0.8,2.5,1.5s0.9,1.5,0.9,2.5c0,0.9-0.3,1.7-0.8,2.5c-0.5,0.7-1.2,1.3-2.1,1.6v0.1    c0.5,0.1,1.1,0.2,1.5,0.4c0.5,0.2,0.9,0.5,1.3,0.8c0.6,0.4,1,0.9,1.2,1.5C175.6-683.5,175.7-682.9,175.7-682.1z M170.9-682.6    c0-0.4-0.1-0.8-0.3-1.1s-0.4-0.6-0.7-0.9c-0.3-0.2-0.6-0.4-1-0.5s-0.9-0.2-1.4-0.2c-0.4,0-0.7,0-0.9,0s-0.4,0-0.5,0l-0.4-1.8    c0.5,0,1-0.1,1.4-0.2c0.4-0.1,0.8-0.3,1.1-0.5s0.6-0.5,0.8-0.9c0.2-0.3,0.3-0.8,0.3-1.3c0-0.4-0.1-0.8-0.3-1.2s-0.5-0.6-0.9-0.9    c-0.3-0.2-0.7-0.3-1.2-0.4c-0.4-0.1-0.9-0.1-1.4-0.1c-0.3,0-0.5,0-0.8,0s-0.5,0-0.5,0c0,1,0,2,0,3.2s0,2.2,0,3.1    c0,0.9,0,2.2,0,3.8s0,2.5,0,2.6c0.1,0,0.3,0,0.6,0s0.6,0,0.9,0c0.7,0,1.4,0,2.1-0.1c0.7-0.1,1.3-0.2,1.7-0.5    c0.4-0.2,0.8-0.5,1-0.9C170.7-681.8,170.9-682.1,170.9-682.6z"></path>
		<path d="M136.2-662.6l-0.7,0.6c-0.1-0.1-0.4-0.4-0.9-1s-1.3-1.5-2.4-2.8v-0.1c0.1,0,0.3-0.1,0.6-0.3s0.5-0.3,0.6-0.4    c0.1-0.1,0.3-0.3,0.4-0.5c0.1-0.2,0.2-0.5,0.2-0.8s-0.1-0.6-0.2-0.8c-0.2-0.2-0.4-0.4-0.7-0.5c-0.2-0.1-0.5-0.1-0.7-0.2    c-0.2-0.1-0.5,0-0.7,0c-0.1,0-0.2,0-0.3,0s-0.1,0-0.2,0c0,0.7,0,1.4,0,2s0,1,0,1.2c0,0.5,0,1.3,0,2.2s0,1.5,0,1.7h-1    c0-0.2,0-0.7,0-1.4s0-1.5,0-2.5c0-0.2,0-0.6,0-1.1s0-1.5,0-2.9c0,0,0.2,0,0.6,0c0.4,0,0.7,0,1,0s0.7,0,1,0.1    c0.3,0,0.6,0.1,0.9,0.3c0.4,0.2,0.7,0.4,0.9,0.7s0.3,0.7,0.3,1.1c0,0.6-0.2,1-0.5,1.4s-0.7,0.6-1,0.8l0,0c0.5,0.6,1.1,1.3,1.8,1.9    C135.8-663,136.2-662.6,136.2-662.6z"></path>
		<path d="M142.8-662.1c0,0-0.3,0-0.8,0s-1.1,0-1.8,0c-0.5,0-1,0-1.4,0s-0.8,0-1,0c0-0.2,0-0.7,0-1.5s0-1.5,0-2.3c0-0.4,0-1,0-1.8    s0-1.5,0-2.3c0.3,0,0.6,0,1,0s0.8,0,1.3,0c0.7,0,1.4,0,1.8,0s0.7,0,0.8,0v0.8c0,0-0.3,0-0.7,0s-1,0-1.7,0c-0.3,0-0.6,0-0.9,0    s-0.5,0-0.7,0c0,0.4,0,0.9,0,1.3c0,0.4,0,0.9,0,1.2c0.2,0,0.4,0,0.6,0s0.5,0,0.6,0c0.7,0,1.3,0,1.8,0s0.8,0,0.9,0v0.8    c0,0-0.4,0-1,0s-1.2,0-1.7,0c-0.2,0-0.4,0-0.7,0s-0.5,0-0.7,0c0,0.7,0,1.3,0,1.8s0,0.8,0,1.1c0.2,0,0.5,0,0.8,0s0.7,0,1.1,0    c0.6,0,1.1,0,1.5,0s0.6,0,0.7,0v0.9H142.8z"></path>
		<path d="M150.2-662.8c0,0,0,0.1,0,0.3s0,0.3,0,0.5h-0.1H150c-1,0-1.8-0.1-2.5-0.4s-1.4-0.6-1.8-1c-0.3-0.3-0.6-0.7-0.8-1.1    c-0.2-0.4-0.3-0.9-0.3-1.5c0-0.5,0.1-1,0.3-1.4s0.4-0.8,0.8-1.1c0.4-0.5,1.1-0.8,1.8-1.1s1.6-0.4,2.4-0.4h0.1h0.1    c0,0.1,0,0.2,0,0.3s0,0.3,0,0.5H150h-0.1c-0.5,0-1,0.1-1.5,0.2c-0.5,0.1-1,0.3-1.4,0.5c-0.5,0.3-0.9,0.6-1.1,1.1s-0.4,0.9-0.4,1.4    s0.1,1,0.4,1.4c0.3,0.4,0.6,0.8,1.1,1.1c0.4,0.2,0.9,0.4,1.4,0.5s1,0.2,1.6,0.2H150.2L150.2-662.8z"></path>
		<path d="M158-662.6l-0.7,0.6c-0.1-0.1-0.4-0.4-0.9-1s-1.3-1.5-2.4-2.8v-0.1c0.1,0,0.3-0.1,0.6-0.3s0.5-0.3,0.6-0.4    c0.1-0.1,0.3-0.3,0.4-0.5c0.1-0.2,0.2-0.5,0.2-0.8s-0.1-0.6-0.2-0.8c-0.2-0.2-0.4-0.4-0.7-0.5c-0.2-0.1-0.5-0.1-0.7-0.2    c-0.2-0.1-0.5,0-0.7,0c-0.1,0-0.2,0-0.3,0s-0.1,0-0.2,0c0,0.7,0,1.4,0,2s0,1,0,1.2c0,0.5,0,1.3,0,2.2s0,1.5,0,1.7h-1    c0-0.2,0-0.7,0-1.4s0-1.5,0-2.5c0-0.2,0-0.6,0-1.1s0-1.5,0-2.9c0,0,0.2,0,0.6,0c0.4,0,0.7,0,1,0s0.7,0,1,0.1    c0.3,0,0.6,0.1,0.9,0.3c0.4,0.2,0.7,0.4,0.9,0.7s0.3,0.7,0.3,1.1c0,0.6-0.2,1-0.5,1.4s-0.7,0.6-1,0.8l0,0c0.5,0.6,1.1,1.3,1.8,1.9    C157.6-663,158-662.6,158-662.6z"></path>
		<path d="M166-669.9c0,0.8,0,1.4,0,1.9s0,0.9,0,1.3c0,0.4,0,0.8,0,1.1s0,0.6,0,0.8c0,0.5-0.1,0.9-0.2,1.2c-0.1,0.3-0.3,0.6-0.6,0.9    s-0.6,0.5-1,0.6s-0.9,0.2-1.4,0.2s-1-0.1-1.4-0.2c-0.4-0.1-0.7-0.3-1-0.6s-0.5-0.6-0.6-0.9s-0.2-0.7-0.2-1.2c0-0.2,0-0.5,0-0.8    s0-0.7,0-1.1c0-0.4,0-0.8,0-1.3s0-1.1,0-1.9h1c0,0.1,0,0.4,0,1s0,1.3,0,2.2c0,0.3,0,0.6,0,0.9s0,0.6,0,0.9c0,0.7,0.2,1.3,0.6,1.6    c0.4,0.3,1,0.6,1.7,0.6c0.8,0,1.3-0.2,1.7-0.5s0.6-0.9,0.6-1.7c0-0.3,0-0.6,0-0.9s0-0.6,0-0.9c0-0.9,0-1.7,0-2.3s0-0.9,0-1    L166-669.9L166-669.9L166-669.9z"></path>
		<path d="M169.6-662.1h-1c0-0.2,0-0.7,0-1.3s0-1.5,0-2.6c0-0.4,0-1,0-1.8s0-1.5,0-2.2h1c0,0.6,0,1.2,0,1.9s0,1.3,0,1.8    c0,1.2,0,2.1,0,2.8C169.6-662.8,169.6-662.3,169.6-662.1z"></path>
		<path d="M177.8-669.1c-0.1,0-0.3,0-0.8,0s-1.2,0-2.1,0c0,0.8,0,1.4,0,1.8c0,0.4,0,1,0,1.7s0,1.4,0,2.1s0,1.2,0,1.4h-1    c0-0.2,0-0.7,0-1.4s0-1.4,0-2.1s0-1.2,0-1.6c0-0.4,0-1,0-1.9c-0.8,0-1.5,0-2,0s-0.8,0-0.9,0v-0.8c0.4,0,0.9,0,1.5,0s1.2,0,1.8,0    c0.9,0,1.7,0,2.4,0s1,0,1,0v0.8H177.8z"></path>
	</g>
</g>
<g>
	<g>
		<path class="st5" d="M90.3,220.3c-0.2,0-1.3,0-3.6,0s-5,0-8.3,0c-2.3,0-4.3,0-6.3,0c-1.9,0-3.5,0-4.8,0c0-1.1,0.1-3.3,0.1-6.7    s0-7,0-10.7c0-2,0-4.7,0-8s-0.1-6.7-0.1-10.4c1.3,0,2.9,0,4.8,0s3.9,0,5.9,0c3.5,0,6.3,0,8.4,0s3.3,0,3.5,0v3.8    c-0.2,0-1.3,0-3.4,0c-2,0-4.6,0-7.7,0c-1.3,0-2.7,0-3.9,0c-1.3,0-2.3,0-3.1,0c0,2,0,4-0.1,6.1c-0.1,2-0.1,3.9-0.1,5.7    c0.8,0,1.7,0,2.9,0c1.1,0,2.1,0,3,0c3.2,0,6,0,8.5,0s3.9,0,3.9,0v3.8c-0.1,0-1.6,0-4.4,0s-5.4,0-7.7,0c-0.9,0-1.9,0-3.1,0    s-2.2,0-3,0c0,3.4,0,6.1,0,8.1s0,3.7,0.1,5c1.1,0,2.3,0,3.9,0s3.1,0,4.9,0c2.7,0,4.9,0,6.7,0c1.8,0,2.8,0,3.1,0L90.3,220.3    L90.3,220.3L90.3,220.3z"></path>
		<path class="st5" d="M124,220.8c-0.1,0-0.1,0-0.3,0c-0.2,0-0.3,0-0.5,0c-4.3,0-8.3-0.6-11.7-1.6c-3.4-1.1-6.2-2.7-8.4-4.8    c-1.5-1.4-2.7-3.2-3.7-5.2c-0.9-2-1.3-4.3-1.3-6.9c0-2.3,0.5-4.4,1.3-6.4c0.9-1.9,2-3.6,3.5-5c2-2.1,4.8-3.8,8.3-4.9    c3.5-1.3,7.2-1.8,11.2-1.8c0.2,0,0.4,0,0.7,0s0.7,0,0.9,0v3.9c-0.2,0-0.3,0-0.5,0c-0.1,0-0.3,0-0.5,0c-2.2,0-4.5,0.3-6.9,0.8    s-4.5,1.3-6.3,2.2c-2.2,1.3-4,3-5.2,5c-1.3,2-1.8,4.2-1.8,6.6c0,2.4,0.6,4.6,1.6,6.6c1.1,2,2.8,3.7,5.2,5c1.9,1.2,4.1,1.9,6.6,2.4    c2.4,0.5,4.8,0.8,7.1,0.8c0.1,0,0.5,0,0.7,0C124,217.4,124,220.8,124,220.8z"></path>
		<path class="st5" d="M196.8,184.3c0,3.5,0,6.3-0.1,8.6c0,2.2-0.1,4.2-0.1,5.9c0,2,0,3.8,0,5.2s0,2.7,0,3.8c0,2.1-0.3,3.9-1,5.5    c-0.6,1.5-1.5,3-2.8,4.1c-1.3,1.2-2.8,2.1-4.6,2.8s-3.9,1-6.4,1s-4.5-0.3-6.4-1c-1.8-0.7-3.4-1.6-4.6-2.8    c-1.3-1.2-2.2-2.6-2.8-4.1s-1-3.5-1-5.5c0-1.1,0-2.3,0-3.8c0-1.4,0-3.2,0-5.2c0-1.6,0-3.7-0.1-5.9c0-2.2-0.1-5.1-0.1-8.6h4.4    c0,0.5,0,2-0.1,4.6c0,2.6,0,6.1,0,10.3c0,1.3,0,2.6,0,4c0,1.3,0,2.8,0,4.2c0,3.3,1,5.8,2.8,7.4c1.9,1.7,4.4,2.5,7.6,2.5    c3.5,0,6.1-0.8,7.8-2.4c1.7-1.6,2.6-4.1,2.6-7.6c0-1.4,0-2.9,0-4.2s0-2.7,0-4c0-4.2,0-7.7-0.1-10.4c0-2.7-0.1-4.1-0.1-4.4    L196.8,184.3L196.8,184.3z"></path>
		<path class="st5" d="M213.5,220.4H209c0-1.1,0-3,0.1-5.8c0-2.8,0.1-6.7,0.1-11.8c0-2,0-4.7,0-8s-0.1-6.7-0.1-10.3h4.4    c0,2.6-0.1,5.6-0.1,9s0,6.2,0,8.3c0,5.5,0,9.6,0.1,12.6C213.5,217.3,213.5,219.3,213.5,220.4z"></path>
		<path class="st5" d="M250.9,188.1c-0.3,0-1.4,0-3.6,0s-5.3,0-9.6,0c0,3.7-0.1,6.5-0.1,8.4s0,4.5,0,7.8c0,3.2,0,6.4,0,9.6    s0.1,5.4,0.1,6.5h-4.4c0-1.1,0.1-3.3,0.1-6.6s0-6.6,0-9.7c0-3.1,0-5.6,0-7.4c0-1.8,0-4.6-0.1-8.5c-3.9,0-6.9,0-9.2,0s-3.7,0-3.9,0    v-3.8c1.8,0,4,0,6.7,0s5.5,0,8.5,0c4.3,0,8,0,10.9,0s4.5,0,4.7,0L250.9,188.1L250.9,188.1z"></path>
	</g>
	<path class="st5" d="M163,221h-6.1c-0.4-0.4-1.8-1.9-4.2-4.6c-2.4-2.7-6.1-6.9-11.1-12.6v-0.3c0.7-0.2,1.5-0.6,2.7-1.2   c1.2-0.6,2.1-1.3,2.9-1.9c0.7-0.6,1.3-1.3,1.7-2.2c0.5-0.9,0.8-2.1,0.8-3.6c0-1.3-0.4-2.6-1.1-3.6c-0.8-1-1.7-1.7-3-2.2   c-1.1-0.4-2.1-0.7-3.3-0.7c-1.2-0.1-2.2-0.1-3.2-0.1c-0.7,0-1.2,0-1.4,0c-0.4,0-0.6,0-0.8,0c0,3.4-0.1,6.5-0.1,9.1s0,4.4,0,5.5   c0,2.5,0,5.8,0,10s0.1,6.8,0.1,7.9h-4.4c0-1.1,0-3.2,0.1-6.3s0.1-6.9,0.1-11.6c0-0.9,0-2.6,0-5s0-6.8-0.1-13.2c0.2,0,1.1,0,2.7-0.1   c1.6,0,3.1-0.1,4.4-0.1c1.5,0,3.1,0.1,4.5,0.3s2.9,0.6,4.3,1.2c1.7,0.8,3.2,1.8,4.2,3.3s1.5,3.2,1.5,5.1c0,2.5-0.8,4.6-2.3,6.4   c-1.5,1.7-3.1,3-4.4,3.8v0.1c2.5,2.9,5.1,5.9,8.1,8.9C158.4,216.3,162.8,220.7,163,221z"></path>
	<path class="st5" d="M63,221h-6.1c-0.4-0.4-1.8-1.9-4.2-4.6c-2.4-2.7-6.1-6.9-11.1-12.6v-0.3c0.7-0.2,1.5-0.6,2.7-1.2   c1.2-0.6,2.1-1.3,2.9-1.9c0.7-0.6,1.3-1.3,1.7-2.2c0.5-0.9,0.8-2.1,0.8-3.6c0-1.3-0.4-2.6-1.1-3.6c-0.8-1-1.7-1.7-3-2.2   c-1.1-0.4-2.1-0.7-3.3-0.7c-1.2-0.1-2.2-0.1-3.2-0.1c-0.7,0-1.2,0-1.4,0c-0.4,0-0.6,0-0.8,0c0,3.4-0.1,6.5-0.1,9.1s0,4.4,0,5.5   c0,2.5,0,5.8,0,10s0.1,6.8,0.1,7.9h-4.4c0-1.1,0-3.2,0.1-6.3s0.1-6.9,0.1-11.6c0-0.9,0-2.6,0-5s0-6.8-0.1-13.2c0.2,0,1.1,0,2.7-0.1   c1.6,0,3.1-0.1,4.4-0.1c1.5,0,3.1,0.1,4.5,0.3s2.9,0.6,4.3,1.2c1.7,0.8,3.2,1.8,4.2,3.3s1.5,3.2,1.5,5.1c0,2.5-0.8,4.6-2.3,6.4   c-1.5,1.7-3.1,3-4.4,3.8v0.1c2.5,2.9,5.1,5.9,8.1,8.9C58.4,216.3,62.8,220.7,63,221z"></path>
</g>
<g>
	<path class="st0" d="M174.1,62.9c0.8,0,3.4-0.1,7.7-0.3c4.2-0.2,8.9-0.3,13.7-0.3c7.3,0,13.5,0.2,18.4,0.6   c4.9,0.4,9.4,1.2,13.3,2.4c5,1.5,9.1,3.9,12,7.1s4.4,7.2,4.4,12c0,4.3-1.2,8.3-3.7,11.8s-5.8,6.1-10.1,7.9v0.5   c2.6,0.4,5.1,1,7.3,1.9c2.3,0.9,4.3,2.2,6.1,3.7c2.7,2,4.6,4.4,5.9,7.1c1.2,3.2,1.8,6.3,1.8,10c0,5-1.6,9.6-4.7,13.5   c-3.1,3.9-7.6,6.9-13.4,9.1c-4.7,1.7-10.2,2.9-16.3,3.5s-13,0.9-20.3,0.9c-4,0-8.2-0.1-12.5-0.2c-4.3-0.1-7.5-0.2-9.7-0.3V62.9   H174.1z M195.8,138.6c0.6,0,1.5,0,2.8,0.1s2.7,0.1,4.4,0.1c3.5,0,6.9-0.2,10.3-0.6c3.3-0.4,6-1.2,8.2-2.4c2.1-1.1,3.7-2.6,4.9-4.5   c1-1.8,1.6-4,1.6-6.4c0-2.1-0.4-3.9-1.2-5.4s-1.9-2.9-3.3-4.2c-1.2-1-2.8-1.9-4.9-2.6c-2-0.7-4.2-0.8-6.5-1   c-1.9-0.1-3.1-0.2-4.5-0.2c-1.2,0-3.9,0.1-4.2,0.1v-8.3c2.4-0.1,4.6-0.4,6.7-1c2.1-0.6,3.8-1.4,5.2-2.4c1.5-1.1,2.7-2.5,3.7-4.2   c1-1.6,1.5-3.7,1.5-6.1c0-2-0.5-3.9-1.6-5.6s-2.5-3.1-4.4-4.1c-1.6-0.8-3.4-1.3-5.6-1.7c-2.1-0.4-4.4-0.5-6.8-0.5   c-1.2,0-2.5,0-3.7,0.1c-1.3,0-2.2,0.1-2.6,0.1L195.8,138.6L195.8,138.6z"></path>
	<polygon class="st0" points="120.4,62.5 143.1,62.5 158.7,154.1 137.4,154.1 126.1,92.7 105.5,142.7 85.7,142.7 65.1,92.7    53.8,154.1 32.5,154.1 48.1,62.5 70.8,62.5 95.6,117.2  "></polygon>
</g>
</svg>
